name Walk2_EMG.mot
datacolumns 17
datarows 19
range 3.09500000 3.11300000
endheader
                time	            vasmed_r	            vaslat_r	            recfem_r	               gra_r	               sar_r	            tibant_r	           perlong_r	            addmag_r	           semimem_r	          bicfemlh_r	            gasmed_r	            gaslat_r	               sol_r	               tfl_r	              gmed_r	              gmax_r	
          3.09500000	         -0.00134336	          0.00000000	          0.00000000	          0.00000000	          0.03343084	          0.02303121	          0.03314774	          0.00000000	          0.00000000	          0.00000000	          0.00000000	          0.00000000	          0.00000000	          0.00000000	          0.00000000	          0.00000000	
          3.09600000	         -0.00134183	          0.00000000	          0.00000000	          0.00000000	          0.03343831	          0.02303261	          0.03315064	          0.00000000	          0.00000000	          0.00000000	          0.00000000	          0.00000000	          0.00000000	          0.00000000	          0.00000000	          0.00000000	
          3.09700000	         -0.00133567	          0.00000000	          0.00000000	          0.00000000	          0.03346908	          0.02303820	          0.03316208	          0.00000000	          0.00000000	          0.00000000	          0.00000000	          0.00000000	          0.00000000	          0.00000000	          0.00000000	          0.00000000	
          3.09800000	         -0.00131925	          0.00000000	          0.00000000	          0.00000000	          0.03355324	          0.02305312	          0.03319405	          0.00000000	          0.00000000	          0.00000000	          0.00000000	          0.00000000	          0.00000000	          0.00000000	          0.00000000	          0.00000000	
          3.09900000	         -0.00128509	          0.00000000	          0.00000000	          0.00000000	          0.03373057	          0.02308471	          0.03326577	          0.00000000	          0.00000000	          0.00000000	          0.00000000	          0.00000000	          0.00000000	          0.00000000	          0.00000000	          0.00000000	
          3.10000000	         -0.00122392	          0.00000000	          0.00000000	          0.00000000	          0.03404562	          0.02314324	          0.03340225	          0.00000000	          0.00000000	          0.00000000	          0.00000000	          0.00000000	          0.00000000	          0.00000000	          0.00000000	          0.00000000	
          3.10100000	         -0.00112486	          0.00000000	          0.00000000	          0.00000000	          0.03454642	          0.02324282	          0.03363093	          0.00000000	          0.00000000	          0.00000000	          0.00000000	          0.00000000	          0.00000000	          0.00000000	          0.00000000	          0.00000000	
          3.10200000	         -0.00097682	          0.00000000	          0.00000000	          0.00000000	          0.03528496	          0.02340077	          0.03398047	          0.00000000	          0.00000000	          0.00000000	          0.00000000	          0.00000000	          0.00000000	          0.00000000	          0.00000000	          0.00000000	
          3.10300000	         -0.00076993	          0.00000000	          0.00000000	          0.00000000	          0.03631541	          0.02363599	          0.03448176	          0.00000000	          0.00000000	          0.00000000	          0.00000000	          0.00000000	          0.00010395	          0.00000000	          0.00000000	          0.00000000	
          3.10400000	         -0.00049591	          0.00000000	          0.00000000	          0.00000000	          0.03769109	          0.02396721	          0.03516803	          0.00000000	          0.00000000	          0.00000000	          0.00000000	          0.00000000	          0.00045053	          0.00000000	          0.00000000	          0.00000000	
          3.10500000	         -0.00014774	          0.00000000	          0.00000000	          0.00000000	          0.03946195	          0.02441171	          0.03607253	          0.00000000	          0.00000000	          0.00000000	          0.00000000	          0.00000000	          0.00096191	          0.00000000	          0.00000000	          0.00000000	
          3.10600000	          0.00028078	          0.00010608	          0.00003658	          0.00005889	          0.04167265	          0.02498442	          0.03722601	          0.00019898	          0.00072235	          0.00000000	          0.00137736	          0.00020302	          0.00168236	          0.00011408	          0.00007813	          0.00002791	
          3.10700000	          0.00079519	          0.00036155	          0.00032061	          0.00031739	          0.04436117	          0.02569767	          0.03865581	          0.00045698	          0.00171715	          0.00023511	          0.00467692	          0.00165695	          0.00265305	          0.00052051	          0.00033754	          0.00023062	
          3.10800000	          0.00140124	          0.00066705	          0.00067276	          0.00063380	          0.04755857	          0.02656225	          0.04038564	          0.00075468	          0.00285818	          0.00055754	          0.00861388	          0.00349522	          0.00391000	          0.00102052	          0.00065443	          0.00048530	
          3.10900000	          0.00210646	          0.00102690	          0.00109709	          0.00101272	          0.05129007	          0.02758976	          0.04243582	          0.00109391	          0.00414672	          0.00096731	          0.01321937	          0.00576246	          0.00548538	          0.00162158	          0.00103384	          0.00079943	
          3.11000000	          0.00292144	          0.00144699	          0.00159711	          0.00145918	          0.05557615	          0.02879390	          0.04482436	          0.00147629	          0.00558648	          0.00147881	          0.01853019	          0.00849557	          0.00741192	          0.00232939	          0.00148014	          0.00118095	
          3.11100000	          0.00385926	          0.00193444	          0.00217661	          0.00197794	          0.06043284	          0.03018998	          0.04756694	          0.00190371	          0.00718399	          0.00210881	          0.02459212	          0.01172734	          0.00972651	          0.00314819	          0.00199691	          0.00163716	
          3.11200000	          0.00493359	          0.00249651	          0.00284033	          0.00257307	          0.06587165	          0.03179369	          0.05067598	          0.00237858	          0.00894657	          0.00287424	          0.03145548	          0.01549273	          0.01247158	          0.00408092	          0.00258722	          0.00217436	
          3.11300000	          0.00615778	          0.00313958	          0.00359462	          0.00324791	          0.07190006	          0.03361994	          0.05416163	          0.00290380	          0.01088071	          0.00378999	          0.03917100	          0.01982945	          0.01569396	          0.00512939	          0.00325375	          0.00279852	
